
<svg xmlns="http://www.w3.org/2000/svg" xmlns:xlink="http://www.w3.org/1999/xlink" width="27" height="27" viewBox="0 0 27 27" fill="none"><g opacity="1"  transform="translate(0 0)"><path id="矩形 1" fill-rule="evenodd" style="fill:#FFFFFF" opacity="1" d="M8 -2.32683e-15L19 -2.32683e-15C23.4183 -2.32683e-15 27 3.58172 27 8L27 19C27 23.4183 23.4183 27 19 27L8 27C3.58172 27 -4.30187e-15 23.4183 -3.49024e-15 19L1.16341e-15 8C1.43396e-15 3.58172 3.58172 -2.86791e-15 8 -2.32683e-15Z"></path><path id="文本 2" fill-rule="evenodd" style="fill:#334EFF" opacity="1" d="M12.908 8.276L12.752 9.332L4.94 9.332L4.616 12.332C4.22 16.04 3.14 18.44 3.14 18.44L2 18.188C2.54 17.06 2.96 15.284 2.96 15.284C3.26 13.928 3.452 12.248 3.452 12.248L3.776 9.212C3.8 8.792 4.076 8.534 4.076 8.534C4.352 8.276 4.844 8.276 4.844 8.276L12.908 8.276ZM11.792 13.088L5.432 13.088L5.732 10.568C5.768 10.208 6.032 9.998 6.032 9.998C6.296 9.788 6.74 9.788 6.74 9.788L11.084 9.788C11.648 9.788 11.9 10.022 11.9 10.022C12.152 10.256 12.092 10.748 12.092 10.748L11.792 13.088ZM11 10.604L6.8 10.604L6.74 11.072L10.94 11.072L11 10.604ZM6.596 12.272L10.796 12.272L10.844 11.816L6.644 11.816L6.596 12.272ZM12.596 15.296L12.5 16.208L9.068 16.208L8.912 17.684C8.804 18.38 7.916 18.38 7.916 18.38C7.52 18.38 7.052 18.266 7.052 18.266C6.584 18.152 6.02 17.96 6.02 17.96L6.164 16.964C6.968 17.204 7.544 17.312 7.544 17.312C7.592 17.324 7.652 17.324 7.652 17.324C7.748 17.324 7.784 17.282 7.784 17.282C7.82 17.24 7.832 17.132 7.832 17.132L7.952 16.208L4.472 16.208L4.58 15.296L8.072 15.296L8.096 15.116L9.68 14.432L5.384 14.432L5.48 13.556L10.952 13.556C11.288 13.556 11.474 13.7 11.474 13.7C11.66 13.844 11.66 14.06 11.66 14.06C11.66 14.228 11.552 14.384 11.552 14.384C11.444 14.54 11.24 14.636 11.24 14.636L9.644 15.296L12.596 15.296ZM21.092 13.88C21.356 14.54 21.8 15.176 21.8 15.176C23.06 14.72 24.044 14.252 24.044 14.252L23.924 15.392C23.12 15.752 22.436 15.98 22.436 15.98C23.252 16.868 24.596 17.672 24.596 17.672L23.576 18.332C22.232 17.396 21.38 16.328 21.38 16.328C20.564 15.32 19.988 13.88 19.988 13.88L19.076 13.88L18.704 16.856L18.704 16.916C18.704 17.048 18.8 17.048 18.8 17.048C18.824 17.048 18.968 17.024 18.968 17.024L19.4 16.904L19.868 16.76C20.18 16.664 20.72 16.448 20.72 16.448L20.684 17.66C20.48 17.72 20.264 17.804 20.264 17.804L19.196 18.164C19.16 18.176 18.842 18.284 18.842 18.284C18.524 18.392 18.224 18.392 18.224 18.392C17.924 18.392 17.732 18.236 17.732 18.236C17.492 18.032 17.492 17.588 17.492 17.588C17.492 17.516 17.516 17.3 17.516 17.3L18.392 9.908C18.464 9.356 18.722 9.134 18.722 9.134C18.98 8.912 19.58 8.912 19.58 8.912L20.732 8.912L20.42 8L21.572 8L21.92 8.912L23.168 8.912C24.296 8.912 24.188 10.004 24.188 10.004L23.708 13.88L21.092 13.88ZM15.644 8.144L17.708 9.32L17.552 10.592L15.5 9.404L15.644 8.144ZM23.084 9.944L19.58 9.944L19.46 10.904L22.964 10.904L23.084 9.944ZM14.948 10.616L16.976 11.828L16.832 13.088L14.78 11.876L14.948 10.616ZM22.844 11.876L19.328 11.876L19.208 12.836L22.724 12.836L22.844 11.876ZM16.964 13.904L16.556 15.032C16.04 16.46 15.728 17.24 15.728 17.24L15.32 18.2L14.072 18.2C15.176 15.608 15.764 13.904 15.764 13.904L16.964 13.904Z"></path></g></svg>